<?xml version="1.0" encoding="utf-8"?>
<!-- Generator: Adobe Illustrator 19.2.0, SVG Export Plug-In . SVG Version: 6.00 Build 0)  -->
<svg version="1.1" id="Lager_1" xmlns="http://www.w3.org/2000/svg" xmlns:xlink="http://www.w3.org/1999/xlink" x="0px" y="0px"
	 viewBox="0 0 160 160" style="enable-background:new 0 0 160 160;" xml:space="preserve">
<style type="text/css">
	.st0{fill:#FFC373;}
	.st1{fill:#EF9A4D;}
</style>
<path class="st0" d="M125.7,144.1c20-14.3,33-37.7,33-64.2C158.7,36.3,123.4,1,79.9,1S1,36.3,1,79.9c0,60.4,65.1,98.1,117.3,68.9
	 M79.9,108.9c-16,0-29-13-29-29s13-29,29-29s29,13,29,29S95.9,108.9,79.9,108.9z"/>
<path class="st1" d="M10.6,79.9C10.6,38,43.4,3.7,84.7,1.2C39.1-1.6,1,34.6,1,79.9c0,45.2,38.1,81.5,83.8,78.7
	C43.4,156.2,10.6,121.9,10.6,79.9z"/>
</svg>
