<?xml version="1.0" encoding="utf-8"?>
<!-- Generator: Adobe Illustrator 19.2.0, SVG Export Plug-In . SVG Version: 6.00 Build 0)  -->
<svg version="1.1" id="Lager_1" xmlns="http://www.w3.org/2000/svg" xmlns:xlink="http://www.w3.org/1999/xlink" x="0px" y="0px"
	 viewBox="0 0 160 160" style="enable-background:new 0 0 160 160;" xml:space="preserve">
<style type="text/css">
	.st0{fill:#5E4930;}
	.st1{fill:#2B1808;}
	.st2{fill:#FFC373;}
	.st3{fill:#EF9A4D;}
</style>
<path class="st0" d="M125.7,144.1c20-14.3,33-37.7,33-64.2C158.7,36.3,123.4,1,79.9,1S1,36.3,1,79.9c0,60.4,65.1,98.1,117.3,68.9
	 M79.9,108.9c-16,0-29-13-29-29s13-29,29-29s29,13,29,29S95.9,108.9,79.9,108.9z"/>
<path class="st1" d="M10.6,79.9C10.6,38,43.4,3.7,84.7,1.2C39.1-1.6,1,34.6,1,79.9c0,45.2,38.1,81.5,83.8,78.7
	C43.4,156.2,10.6,121.9,10.6,79.9z"/>
<path class="st2" d="M76.9,159.1c2-0.1,4,0.1,5.9-0.3c-0.6-0.3-1.1-0.4-1.7-0.5c-3.3-0.2-6.6-1-9.9-1.6c-1.7-0.3-3.2-1.1-4.9-1.2
	c-0.2-0.1-0.3-0.2-0.5-0.3c-0.2-0.3-0.4-0.6-0.7-0.8c-15.6-15.6-31.2-31.2-46.8-46.8c-1.3-1.3-2.5-2.8-4.1-3.9
	c-0.1-0.1-0.1-0.3-0.2-0.4c0.1-0.1,0-0.2-0.1-0.1v-0.1c0.1-0.9-0.4-1.6-0.6-2.4c-1.8-6.8-2.8-13.6-2.8-20.6c0-3.1,0.4-6.3,0.5-9.4
	c0.4,0.2,0.7,0.5,1,0.8c24.6,24.5,49,49,73.5,73.4c4,4,8,8.1,12,12.1c-2.5,0.8-5,1.1-7.6,1.5c-2.2,0.3-5,0.1-7.2,0.3"/>
<path class="st2" d="M156.8,96.7c-0.3,2.8-1.2,5.4-2,8.1c-1.4,4.5-3.3,8.7-5.5,12.8c-0.2,0.3-0.3,0.7-0.6,0.9
	c-3.3-3.3-6.7-6.6-10-10c-7.7-7.7-15.4-15.4-23.1-23.1c-2.2-2.2-4.3-4.6-6.8-6.6c-0.2-1.4-0.2-2.9-0.6-4.2
	c-2.8-11.8-9.9-19.4-21.7-22.7c-1.8-0.5-3.7-0.5-5.5-0.9c0-0.3-0.3-0.5-0.5-0.7C69.1,39,57.7,27.5,46.3,16.1
	c-0.4-0.4-0.9-0.6-0.9-1.3c2.2-1.3,4.4-2.6,6.7-3.9c4.2-2.3,8.6-4.1,13.2-5.8c0.2,0.2,0.5,0.4,0.7,0.6
	c25.2,25.2,50.3,50.3,75.5,75.5C146.5,86.4,151.7,91.6,156.8,96.7z"/>
<path class="st2" d="M100.6,100.4c3.1,3.1,6.3,6.1,9.4,9.2c8.5,8.5,17,17,25.5,25.5c0.1,0.1,0.3,0.3,0.5,0.4
	c-4.9,5.3-10.7,9.5-17,13c-11.6-11.6-23.2-23.2-34.8-34.8c-1.5-1.5-3-3-4.4-4.5c4.9-0.2,9.6-1.3,14-3.6
	C96.3,104.1,98.4,102.2,100.6,100.4z"/>
<path class="st2" d="M157.7,67.8c-10.4-10.4-20.8-20.8-31.3-31.2C115.2,25.3,103.9,14,92.6,2.7c-0.2-0.2-0.4-0.4-0.6-0.6
	c4.2,0.5,8.2,1.6,12.1,2.9c9.5,3,18.1,7.8,25.8,14.2c13.7,11.4,22.6,25.9,26.8,43.2C157.2,64.1,157.4,66,157.7,67.8z"/>
<path class="st2" d="M29.6,29.4c7.1,7.1,14.2,14.1,21.3,21.2c2.9,2.9,5.8,5.8,8.7,8.7c-3.1,3.3-5.6,6.9-7.1,11.2
	c-0.9,2.7-1.5,5.4-1.6,8.3c0,0.5,0,1-0.3,1.4c-3.2-3.1-6.4-6.3-9.5-9.4c-6.4-6.3-12.7-12.7-19.1-19c-1.4-1.4-2.6-2.9-4.2-4
	c0-0.2-0.1-0.3-0.1-0.5c1.2-2.3,2.4-4.6,3.7-6.8c2.1-3.7,4.7-7.1,7.3-10.5C29,29.6,29.3,29.4,29.6,29.4z"/>
<path class="st3" d="M17.9,47.6l-8.7-2.8c0,0,6.8-13.4,12.5-18.2l7.9,2.7C29.6,29.4,24.7,32.9,17.9,47.6z"/>
<path class="st3" d="M11.1,70.7l-9.2-2.9c0,0-3.3,16.2,1.8,32.6l10.6,3.3C14.3,103.7,9.7,89.4,11.1,70.7z"/>
<path class="st3" d="M45.3,14.8l-6.6-2.2c0,0,8.8-6.3,22-9.2l4.4,1.8C65.1,5.2,57.4,7.8,45.3,14.8z"/>
<path class="st3" d="M65.8,155.2l0.7,2.5c0,0,9.4,2,18.3,0.9C84.8,158.6,68.9,156.3,65.8,155.2z"/>
</svg>
