<?xml version="1.0" encoding="utf-8"?>
<!-- Generator: Adobe Illustrator 19.2.0, SVG Export Plug-In . SVG Version: 6.00 Build 0)  -->
<svg version="1.1" id="Lager_1" xmlns="http://www.w3.org/2000/svg" xmlns:xlink="http://www.w3.org/1999/xlink" x="0px" y="0px"
	 viewBox="0 0 160 160" style="enable-background:new 0 0 160 160;" xml:space="preserve">
<style type="text/css">
	.st0{fill:#E8E8E8;}
	.st1{fill:#D8D8D8;}
	.st2{fill:#E0D3B8;}
	.st3{fill:#CEB7A1;}
</style>
<path class="st0" d="M125.7,144.1c20-14.3,33-37.7,33-64.2C158.7,36.3,123.4,1,79.9,1S1,36.3,1,79.9c0,60.4,65.1,98.1,117.3,68.9
	 M79.9,108.9c-16,0-29-13-29-29s13-29,29-29s29,13,29,29S95.9,108.9,79.9,108.9z"/>
<path class="st1" d="M10.6,79.9C10.6,38,43.4,3.7,84.7,1.2C39.1-1.6,1,34.6,1,79.9c0,45.2,38.1,81.5,83.8,78.7
	C43.4,156.2,10.6,121.9,10.6,79.9z"/>
<path class="st2" d="M95.2,134.5c2.2,1.4,5.1,3.4,8.7,2.9c3.3-0.3,3.8-1,16.7-9.4c1.5-0.9,6-3,11.2,0.3l0,0l7.6,5
	c12.4-14,20-32.5,20-52.7c0-44-35.6-79.6-79.5-79.6S0.4,36.6,0.4,80.6c0,20.2,7.6,38.7,20,52.7l7.6-5l0,0c5.1-3.3,9.6-1.2,11.2-0.3
	c8.3,5.4,5.5,3.6,12.3,8c1.8,1.1,3.9,1.4,4.4,1.4c4.7,0.5,6.8-1.6,18.2-9.1c0.4-0.4,5.6-3.9,11.6,0l0,0l1.8,1.3 M79.9,109.7
	c-16.1,0-29.2-13.1-29.2-29.2s13.1-29.2,29.2-29.2s29.2,13.1,29.2,29.2S96,109.7,79.9,109.7z"/>
<path class="st3" d="M5.1,107.6c4.6,12.8,10.8,20.3,15.2,25.6l6.3-4.1C16.2,115.7,10,98.8,10,80.5C10,38.2,43,3.6,84.7,1.1
	c-0.3,0-3-0.2-4.8-0.2C24.6,1-13.6,56.1,5.1,107.6z"/>
</svg>
