<?xml version="1.0" encoding="utf-8"?>
<!-- Generator: Adobe Illustrator 19.2.0, SVG Export Plug-In . SVG Version: 6.00 Build 0)  -->
<svg version="1.1" id="Lager_1" xmlns="http://www.w3.org/2000/svg" xmlns:xlink="http://www.w3.org/1999/xlink" x="0px" y="0px"
	 viewBox="0 0 160 160" style="enable-background:new 0 0 160 160;" xml:space="preserve">
<style type="text/css">
	.st0{fill:#E8E8E8;}
	.st1{fill:#D8D8D8;}
	.st2{fill:#D3D3D3;}
	.st3{fill:#C4C4C4;}
	.st4{fill:#FFFFFF;}
</style>
<path class="st0" d="M125.7,144.1c20-14.3,33-37.7,33-64.2C158.7,36.3,123.4,1,79.9,1S1,36.3,1,79.9c0,60.4,65.1,98.1,117.3,68.9
	 M79.9,108.9c-16,0-29-13-29-29s13-29,29-29s29,13,29,29S95.9,108.9,79.9,108.9z"/>
<path class="st1" d="M10.6,79.9C10.6,38,43.4,3.7,84.7,1.2C39.1-1.6,1,34.6,1,79.9c0,45.2,38.1,81.5,83.8,78.7
	C43.4,156.2,10.6,121.9,10.6,79.9z"/>
<path class="st2" d="M95.2,134.5c2.2,1.4,5.1,3.4,8.7,2.9c3.3-0.3,3.8-1,16.7-9.4c1.5-0.9,6-3,11.2,0.3l0,0l7.6,5
	c12.4-14,20-32.5,20-52.7c0-44-35.6-79.6-79.5-79.6S0.4,36.6,0.4,80.6c0,20.2,7.6,38.7,20,52.7l7.6-5l0,0c5.1-3.3,9.6-1.2,11.2-0.3
	c8.3,5.4,5.5,3.6,12.3,8c1.8,1.1,3.9,1.4,4.4,1.4c4.7,0.5,6.8-1.6,18.2-9.1c0.4-0.4,5.6-3.9,11.6,0l0,0l1.8,1.3 M79.9,109.7
	c-16.1,0-29.2-13.1-29.2-29.2s13.1-29.2,29.2-29.2s29.2,13.1,29.2,29.2S96,109.7,79.9,109.7z"/>
<path class="st3" d="M5.1,107.6c4.6,12.8,10.8,20.3,15.2,25.6l6.3-4.1C16.2,115.7,10,98.8,10,80.5C10,38.2,43,3.6,84.7,1.1
	c-0.3,0-3-0.2-4.8-0.2C24.6,1-13.6,56.1,5.1,107.6z"/>
<g id="Lager_2">
	<circle class="st4" cx="104.8" cy="34.6" r="1.7"/>
	<circle class="st4" cx="94.1" cy="37.8" r="1.7"/>
	<circle class="st4" cx="101.4" cy="24.6" r="1.7"/>
	<circle class="st4" cx="121.8" cy="34.6" r="1.5"/>
	<ellipse transform="matrix(0.9279 -0.3728 0.3728 0.9279 -26.9059 14.8593)" class="st4" cx="25" cy="77" rx="1.7" ry="1.7"/>
	<ellipse transform="matrix(0.9279 -0.3728 0.3728 0.9279 -21.5175 11.6828)" class="st4" cx="19.4" cy="61.5" rx="1.5" ry="1.5"/>
	<ellipse transform="matrix(0.8128 -0.5825 0.5825 0.8128 -26.3529 37.9283)" class="st4" cx="45.8" cy="60" rx="1.7" ry="1.7"/>
	<ellipse transform="matrix(0.8128 -0.5825 0.5825 0.8128 -19.7361 35.8021)" class="st4" cx="45.8" cy="48.6" rx="1.7" ry="1.7"/>
	<ellipse transform="matrix(0.8128 -0.5825 0.5825 0.8128 -28.0195 29.817)" class="st4" cx="32.4" cy="58.5" rx="1.7" ry="1.7"/>
	<ellipse transform="matrix(0.8128 -0.5825 0.5825 0.8128 -22.0486 94.5833)" class="st4" cx="136.2" cy="81.6" rx="1.7" ry="1.7"/>
	<ellipse transform="matrix(0.8128 -0.5825 0.5825 0.8128 -24.9516 22.9714)" class="st4" cx="23.3" cy="50.3" rx="1.7" ry="1.7"/>
	<ellipse transform="matrix(0.8128 -0.5825 0.5825 0.8128 -45.7027 25.1281)" class="st4" cx="16.2" cy="83.7" rx="1.7" ry="1.7"/>
	<ellipse transform="matrix(0.8128 -0.5825 0.5825 0.8128 -41.9341 39.8563)" class="st4" cx="41.1" cy="85.2" rx="1.5" ry="1.5"/>
	<ellipse transform="matrix(0.8128 -0.5825 0.5825 0.8128 -18.2625 88.1838)" class="st4" cx="128.1" cy="72.5" rx="1.5" ry="1.5"/>
	<ellipse transform="matrix(0.8128 -0.5825 0.5825 0.8128 -27.3716 85.1756)" class="st4" cx="118.8" cy="85.2" rx="1.5" ry="1.5"/>
	<ellipse transform="matrix(0.8128 -0.5825 0.5825 0.8128 -16.3359 78.1202)" class="st4" cx="113.4" cy="64.5" rx="1.5" ry="1.5"/>
	<ellipse transform="matrix(0.8128 -0.5825 0.5825 0.8128 -12.4429 84.2346)" class="st4" cx="124.9" cy="61.5" rx="1.5" ry="1.5"/>
	<ellipse transform="matrix(0.8128 -0.5825 0.5825 0.8128 1.4195 86.0782)" class="st4" cx="134.7" cy="40.8" rx="1.5" ry="1.5"/>
	
		<ellipse transform="matrix(0.8128 -0.5825 0.5825 0.8128 -17.6016 102.2226)" class="st4" cx="150.3" cy="78.5" rx="1.5" ry="1.5"/>
	<ellipse transform="matrix(0.8128 -0.5825 0.5825 0.8128 -28.4708 95.6829)" class="st4" cx="134.7" cy="92.1" rx="1.5" ry="1.5"/>
	<ellipse transform="matrix(0.537 -0.8436 0.8436 0.537 16.7004 140.5072)" class="st4" cx="136.4" cy="55" rx="1.7" ry="1.7"/>
	<ellipse transform="matrix(0.537 -0.8436 0.8436 0.537 16.1728 149.4823)" class="st4" cx="144.3" cy="60" rx="1.5" ry="1.5"/>
	<ellipse transform="matrix(0.537 -0.8436 0.8436 0.537 6.7328 152.3081)" class="st4" cx="142.1" cy="70" rx="1.5" ry="1.5"/>
</g>
<g id="Lager_2_1_">
	<circle class="st4" cx="114.3" cy="23.9" r="1.7"/>
	<circle class="st4" cx="108.9" cy="14.6" r="1.7"/>
	<circle class="st4" cx="84.8" cy="24.6" r="1.5"/>
	<circle class="st4" cx="95.6" cy="14.6" r="1.5"/>
	<circle class="st4" cx="48.2" cy="31.6" r="1.5"/>
	<circle class="st4" cx="57.1" cy="22.2" r="1.5"/>
	<ellipse transform="matrix(0.9279 -0.3728 0.3728 0.9279 -24.1724 18.4374)" class="st4" cx="35.6" cy="71.7" rx="1.7" ry="1.7"/>
	<ellipse transform="matrix(0.9279 -0.3728 0.3728 0.9279 -9.0846 16.1775)" class="st4" cx="37.3" cy="31.6" rx="1.7" ry="1.7"/>
	<ellipse transform="matrix(0.9279 -0.3728 0.3728 0.9279 -14.0832 15.2486)" class="st4" cx="32.4" cy="44" rx="1.5" ry="1.5"/>
	<ellipse transform="matrix(0.8128 -0.5825 0.5825 0.8128 -13.7725 42.2)" class="st4" cx="58.8" cy="42.5" rx="1.7" ry="1.7"/>
	<ellipse transform="matrix(0.8128 -0.5825 0.5825 0.8128 -7.5991 55.0115)" class="st4" cx="81.8" cy="39.3" rx="1.5" ry="1.5"/>
	<ellipse transform="matrix(0.537 -0.8436 0.8436 0.537 13.0941 123.0565)" class="st4" cx="118.6" cy="49.6" rx="1.7" ry="1.7"/>
	<ellipse transform="matrix(0.537 -0.8436 0.8436 0.537 9.2657 109.6805)" class="st4" cx="104.6" cy="46.4" rx="1.5" ry="1.5"/>
	<ellipse transform="matrix(0.537 -0.8436 0.8436 0.537 7.1066 70.1051)" class="st4" cx="67.4" cy="28.6" rx="1.5" ry="1.5"/>
	<ellipse transform="matrix(0.537 -0.8436 0.8436 0.537 21.9225 72.2413)" class="st4" cx="76.8" cy="16.1" rx="1.5" ry="1.5"/>
	<ellipse transform="matrix(0.537 -0.8436 0.8436 0.537 -5.8011 82.2291)" class="st4" cx="72" cy="46.4" rx="1.5" ry="1.5"/>
</g>
</svg>
