<?xml version="1.0" encoding="utf-8"?>
<!-- Generator: Adobe Illustrator 19.2.0, SVG Export Plug-In . SVG Version: 6.00 Build 0)  -->
<svg version="1.1" id="Lager_1" xmlns="http://www.w3.org/2000/svg" xmlns:xlink="http://www.w3.org/1999/xlink" x="0px" y="0px"
	 viewBox="0 0 160 160" style="enable-background:new 0 0 160 160;" xml:space="preserve">
<style type="text/css">
	.st0{fill:#E8E8E8;}
	.st1{fill:#D8D8D8;}
	.st2{fill:#D3D3D3;}
	.st3{fill:#C4C4C4;}
	.st4{fill:#F464AC;}
	.st5{fill:#86EF5B;}
	.st6{fill:#FFCC00;}
	.st7{fill:#ECF1F8;}
</style>
<path class="st0" d="M125.7,144.1c20-14.3,33-37.7,33-64.2C158.7,36.3,123.4,1,79.9,1S1,36.3,1,79.9c0,60.4,65.1,98.1,117.3,68.9
	 M79.9,108.9c-16,0-29-13-29-29s13-29,29-29s29,13,29,29S95.9,108.9,79.9,108.9z"/>
<path class="st1" d="M10.6,79.9C10.6,38,43.4,3.7,84.7,1.2C39.1-1.6,1,34.6,1,79.9c0,45.2,38.1,81.5,83.8,78.7
	C43.4,156.2,10.6,121.9,10.6,79.9z"/>
<path class="st2" d="M95.2,134.5c2.2,1.4,5.1,3.4,8.7,2.9c3.3-0.3,3.8-1,16.7-9.4c1.5-0.9,6-3,11.2,0.3l0,0l7.6,5
	c12.4-14,20-32.5,20-52.7c0-44-35.6-79.6-79.5-79.6S0.4,36.6,0.4,80.6c0,20.2,7.6,38.7,20,52.7l7.6-5l0,0c5.1-3.3,9.6-1.2,11.2-0.3
	c8.3,5.4,5.5,3.6,12.3,8c1.8,1.1,3.9,1.4,4.4,1.4c4.7,0.5,6.8-1.6,18.2-9.1c0.4-0.4,5.6-3.9,11.6,0l0,0l1.8,1.3 M79.9,109.7
	c-16.1,0-29.2-13.1-29.2-29.2s13.1-29.2,29.2-29.2s29.2,13.1,29.2,29.2S96,109.7,79.9,109.7z"/>
<path class="st3" d="M5.1,107.6c4.6,12.8,10.8,20.3,15.2,25.6l6.3-4.1C16.2,115.7,10,98.8,10,80.5C10,38.2,43,3.6,84.7,1.1
	c-0.3,0-3-0.2-4.8-0.2C24.6,1-13.6,56.1,5.1,107.6z"/>
<g id="Lager_2">
	<circle class="st4" cx="114.2" cy="22.9" r="3.4"/>
	<circle class="st5" cx="38.2" cy="50.1" r="3.4"/>
	<circle class="st6" cx="104.8" cy="34.6" r="1.7"/>
	<circle class="st7" cx="43.5" cy="39.6" r="2.4"/>
	<circle class="st5" cx="98.3" cy="23.5" r="2.4"/>
	<path class="st6" d="M57,41.3l-3.3-1.6c-0.9-0.4-1.3-1.5-0.9-2.4c0.4-0.9,1.5-1.3,2.4-0.9l3.3,1.6c0.9,0.4,1.3,1.5,0.9,2.4
		C59,41.3,57.8,41.7,57,41.3z"/>
	<path class="st6" d="M96.2,45.2l1.2-1.8c0.3-0.5,1-0.6,1.5-0.3s0.6,1,0.3,1.5L98,46.4c-0.3,0.5-1,0.6-1.5,0.3
		C95.9,46.4,95.8,45.7,96.2,45.2z"/>
	
		<ellipse transform="matrix(0.9988 -4.819148e-02 4.819148e-02 0.9988 -2.432 2.6648)" class="st4" cx="54" cy="51.8" rx="3" ry="3"/>
	<circle class="st5" cx="121.8" cy="34.6" r="1.5"/>
	<path class="st4" d="M89.2,45.4l-2.6-1.2c-0.7-0.3-1-1.2-0.7-1.9s1.2-1,1.9-0.7l2.6,1.2c0.7,0.3,1,1.2,0.7,1.9S90.1,45.7,89.2,45.4
		z"/>
	<ellipse transform="matrix(0.9279 -0.3728 0.3728 0.9279 -26.9458 17.0231)" class="st4" cx="30.5" cy="78.2" rx="3.4" ry="3.4"/>
	<ellipse transform="matrix(0.9279 -0.3728 0.3728 0.9279 -10.7426 28.3505)" class="st5" cx="67.9" cy="42" rx="3.4" ry="3.4"/>
	<ellipse transform="matrix(0.9279 -0.3728 0.3728 0.9279 -26.6019 12.003)" class="st6" cx="17.7" cy="74.8" rx="1.7" ry="1.7"/>
	<ellipse transform="matrix(0.9279 -0.3728 0.3728 0.9279 -9.4001 32.3138)" class="st7" cx="78.9" cy="40.5" rx="2.4" ry="2.4"/>
	<ellipse transform="matrix(0.9279 -0.3728 0.3728 0.9279 -22.5404 20.5443)" class="st5" cx="41.9" cy="68.6" rx="2.4" ry="2.4"/>
	<path class="st6" d="M74.8,26.3l3.7,0.2c1,0.1,1.8,0.9,1.7,1.9c-0.1,1-0.9,1.8-1.9,1.7l-3.7-0.2c-1-0.1-1.8-0.9-1.7-1.9
		C72.9,27.1,73.8,26.3,74.8,26.3z"/>
	<path class="st6" d="M27.9,52.5l-0.4,2.1c-0.1,0.6-0.7,1-1.3,0.9c-0.6-0.1-1-0.7-0.9-1.3l0.4-2.1c0.1-0.6,0.7-1,1.3-0.9
		C27.6,51.4,28,52,27.9,52.5z"/>
	<ellipse transform="matrix(0.9279 -0.3728 0.3728 0.9279 -4.1873 34.6622)" class="st4" cx="87.5" cy="28.2" rx="3" ry="3"/>
	<ellipse transform="matrix(0.9279 -0.3728 0.3728 0.9279 -21.5175 11.6828)" class="st5" cx="19.4" cy="61.5" rx="1.5" ry="1.5"/>
	<path class="st4" d="M28.2,63.9l2.9,0.2c0.8,0,1.4,0.7,1.4,1.5c0,0.8-0.7,1.4-1.5,1.4l-2.9-0.2c-0.8,0-1.4-0.7-1.4-1.5
		C26.7,64.4,27.4,63.8,28.2,63.9z"/>
	<ellipse transform="matrix(0.8128 -0.5825 0.5825 0.8128 -6.1355 34.5862)" class="st4" cx="50.7" cy="26.8" rx="3.4" ry="3.4"/>
	<ellipse transform="matrix(0.8128 -0.5825 0.5825 0.8128 -12.8745 76.8662)" class="st5" cx="113.2" cy="58.5" rx="3.4" ry="3.4"/>
	<ellipse transform="matrix(0.8128 -0.5825 0.5825 0.8128 -26.3529 37.9283)" class="st6" cx="45.8" cy="60" rx="1.7" ry="1.7"/>
	<ellipse transform="matrix(0.8128 -0.5825 0.5825 0.8128 -3.4515 75.9925)" class="st7" cx="116.5" cy="43.4" rx="2.4" ry="2.4"/>
	<ellipse transform="matrix(0.8128 -0.5825 0.5825 0.8128 7.4899 55.3995)" class="st5" cx="89.9" cy="16" rx="2.4" ry="2.4"/>
	<path class="st6" d="M57.5,17l3.6-0.7c1-0.2,2,0.5,2.1,1.5c0.2,1-0.5,2-1.5,2.1l-3.6,0.7c-1,0.2-2-0.5-2.1-1.5
		C55.8,18.1,56.5,17.2,57.5,17z"/>
	<path class="st6" d="M121.4,84.1l0.1,2.2c0,0.6-0.4,1.1-1,1.1s-1.1-0.4-1.1-1l-0.1-2.2c0-0.6,0.4-1.1,1-1.1
		C120.8,83,121.3,83.5,121.4,84.1z"/>
	<ellipse transform="matrix(0.8128 -0.5825 0.5825 0.8128 -21.5755 92.442)" class="st4" cx="133.1" cy="79.8" rx="3" ry="3"/>
	<ellipse transform="matrix(0.8128 -0.5825 0.5825 0.8128 -41.9341 39.8563)" class="st5" cx="41.1" cy="85.2" rx="1.5" ry="1.5"/>
	<path class="st4" d="M103.1,50.7l2.8-0.5c0.8-0.1,1.5,0.4,1.7,1.2c0.1,0.8-0.4,1.5-1.2,1.7l-2.8,0.5c-0.8,0.1-1.5-0.4-1.7-1.2
		C101.8,51.6,102.2,50.8,103.1,50.7z"/>
	<ellipse transform="matrix(0.537 -0.8436 0.8436 0.537 23.656 131.0213)" class="st4" cx="131.2" cy="44" rx="3.4" ry="3.4"/>
	<ellipse transform="matrix(0.537 -0.8436 0.8436 0.537 21.8494 69.9507)" class="st5" cx="74.6" cy="15.1" rx="3.4" ry="3.4"/>
	<ellipse transform="matrix(0.537 -0.8436 0.8436 0.537 16.7004 140.5072)" class="st6" cx="136.4" cy="55" rx="1.7" ry="1.7"/>
	<ellipse transform="matrix(0.537 -0.8436 0.8436 0.537 9.3636 67.433)" class="st7" cx="66.1" cy="25.2" rx="2.4" ry="2.4"/>
	<ellipse transform="matrix(0.537 -0.8436 0.8436 0.537 8.9158 133.1092)" class="st5" cx="125.7" cy="58.4" rx="2.4" ry="2.4"/>
	<path class="st6" d="M121.1,72l-3.1,2c-0.9,0.5-2,0.3-2.5-0.6s-0.3-2,0.6-2.5l3.1-2c0.9-0.5,2-0.3,2.5,0.6
		C122.2,70.3,121.8,71.4,121.1,72z"/>
	<path class="st6" d="M138.9,68.9l-0.9-2c-0.2-0.5,0-1.2,0.5-1.4c0.5-0.2,1.2,0,1.4,0.5l0.9,2c0.2,0.5,0,1.2-0.5,1.4
		C139.8,69.7,139.1,69.5,138.9,68.9z"/>
	<ellipse transform="matrix(0.537 -0.8436 0.8436 0.537 -15.4949 46.2579)" class="st4" cx="34.4" cy="37.2" rx="3" ry="3"/>
	<ellipse transform="matrix(0.537 -0.8436 0.8436 0.537 16.1728 149.4823)" class="st5" cx="144.3" cy="60" rx="1.5" ry="1.5"/>
	<path class="st4" d="M133.9,69.6l-2.4,1.5c-0.7,0.4-1.6,0.2-2-0.4s-0.2-1.6,0.4-2l2.4-1.5c0.7-0.4,1.6-0.2,2,0.4
		C134.9,68.3,134.6,69.2,133.9,69.6z"/>
</g>
</svg>
