<?xml version="1.0" encoding="utf-8"?>
<!-- Generator: Adobe Illustrator 19.2.0, SVG Export Plug-In . SVG Version: 6.00 Build 0)  -->
<svg version="1.1" id="Lager_1" xmlns="http://www.w3.org/2000/svg" xmlns:xlink="http://www.w3.org/1999/xlink" x="0px" y="0px"
	 viewBox="0 0 960 317" style="enable-background:new 0 0 960 317;" xml:space="preserve">
<style type="text/css">
	.st0{fill:#E2334C;}
	.st1{fill:#FF6990;}
	.st2{fill:#EF9A4D;}
	.st3{fill:#FFC373;}
	.st4{fill:#FFCC00;}
	.st5{fill:#57BAE5;}
	.st6{fill:#ECF1F8;}
</style>
<g>
	<g>
		<g>
			<path class="st0" d="M472.3,157.5L447,251.6l-68.2,53.8l64.8-242h53.8l42.1,94.1l25.1-94.1l68.2-53.8l-64.8,242h-53.8
				L472.3,157.5z"/>
		</g>
		<g>
			<g>
				<path class="st1" d="M468.3,157.5L443,251.6l-68.2,53.8l64.8-242h53.8l42.1,94.1l25.1-94.1l68.2-53.8l-64.8,242h-53.8
					L468.3,157.5z"/>
			</g>
		</g>
	</g>
	<g>
		<g>
			<path class="st0" d="M11.8,241.7L44.1,121h60.3c34.5,0,46.3,20.1,35.6,60.3c-10.8,40.2-33.4,60.3-67.9,60.3H11.8z M69.3,155.5
				l-13.9,51.7h25.9c11.5,0,19.6-8.6,24.2-25.9c4.6-17.2,1.1-25.9-10.3-25.9H69.3z"/>
			<path class="st0" d="M192.8,241.7c-16.7,0-29.3-5.9-37.9-17.7c-8.6-11.8-10.7-26-6.2-42.7c4.4-16.7,14.1-30.9,29-42.7
				c14.9-11.8,30.7-17.7,47.4-17.7c16.7,0,29.3,5.9,37.9,17.7c8.6,11.8,10.7,26,6.3,42.7c-4.5,16.7-14.2,30.9-29.1,42.7
				C225.2,235.8,209.4,241.7,192.8,241.7z M222.3,199.6c6.4-5.1,10.6-11.1,12.5-18.3c1.9-7.1,1-13.2-2.7-18.3
				c-3.7-5.1-9.1-7.6-16.2-7.6c-7.1,0-13.9,2.5-20.3,7.6c-6.4,5.1-10.6,11.1-12.5,18.3c-2,7.1-1.1,13.2,2.6,18.3
				c3.7,5.1,9.1,7.6,16.2,7.6C209.1,207.2,215.9,204.7,222.3,199.6z"/>
			<path class="st0" d="M322.1,241.7c-16.7,0-29.3-5.9-37.9-17.7c-8.6-11.8-10.7-26-6.2-42.7c4.4-16.7,14.1-30.9,29-42.7
				c14.9-11.8,30.7-17.7,47.4-17.7c16.7,0,29.3,5.9,37.9,17.7c8.6,11.8,10.7,26,6.3,42.7c-4.5,16.7-14.2,30.9-29.1,42.7
				C354.5,235.8,338.7,241.7,322.1,241.7z M351.6,199.6c6.4-5.1,10.6-11.1,12.5-18.3c1.9-7.1,1-13.2-2.7-18.3
				c-3.7-5.1-9.1-7.6-16.2-7.6c-7.1,0-13.9,2.5-20.3,7.6c-6.4,5.1-10.6,11.1-12.5,18.3c-2,7.1-1.1,13.2,2.6,18.3
				c3.7,5.1,9.1,7.6,16.2,7.6C338.4,207.2,345.2,204.7,351.6,199.6z"/>
		</g>
		<g>
			<g>
				<path class="st1" d="M7.8,241.7L40.1,121h60.3c34.5,0,46.3,20.1,35.6,60.3c-10.8,40.2-33.4,60.3-67.9,60.3H7.8z M65.3,155.5
					l-13.9,51.7h25.9c11.5,0,19.6-8.6,24.2-25.9c4.6-17.2,1.1-25.9-10.3-25.9H65.3z"/>
				<path class="st1" d="M188.8,241.7c-16.7,0-29.3-5.9-37.9-17.7c-8.6-11.8-10.7-26-6.2-42.7c4.4-16.7,14.1-30.9,29-42.7
					c14.9-11.8,30.7-17.7,47.4-17.7c16.7,0,29.3,5.9,37.9,17.7c8.6,11.8,10.7,26,6.3,42.7c-4.5,16.7-14.2,30.9-29.1,42.7
					C221.2,235.8,205.4,241.7,188.8,241.7z M218.3,199.6c6.4-5.1,10.6-11.1,12.5-18.3c1.9-7.1,1-13.2-2.7-18.3
					c-3.7-5.1-9.1-7.6-16.2-7.6c-7.1,0-13.9,2.5-20.3,7.6c-6.4,5.1-10.6,11.1-12.5,18.3c-2,7.1-1.1,13.2,2.6,18.3
					c3.7,5.1,9.1,7.6,16.2,7.6C205.1,207.2,211.9,204.7,218.3,199.6z"/>
				<path class="st1" d="M318.1,241.7c-16.7,0-29.3-5.9-37.9-17.7c-8.6-11.8-10.7-26-6.2-42.7c4.4-16.7,14.1-30.9,29-42.7
					c14.9-11.8,30.7-17.7,47.4-17.7c16.7,0,29.3,5.9,37.9,17.7c8.6,11.8,10.7,26,6.3,42.7c-4.5,16.7-14.2,30.9-29.1,42.7
					C350.5,235.8,334.7,241.7,318.1,241.7z M347.6,199.6c6.4-5.1,10.6-11.1,12.5-18.3c1.9-7.1,1-13.2-2.7-18.3
					c-3.7-5.1-9.1-7.6-16.2-7.6c-7.1,0-13.9,2.5-20.3,7.6c-6.4,5.1-10.6,11.1-12.5,18.3c-2,7.1-1.1,13.2,2.6,18.3
					c3.7,5.1,9.1,7.6,16.2,7.6C334.4,207.2,341.2,204.7,347.6,199.6z"/>
			</g>
		</g>
	</g>
	<g>
		<g>
			<path class="st0" d="M612.7,181.3l16.1-60.3h34.5l-16.1,60.3c-4.7,17.2-1.2,25.9,10.3,25.9c11.5,0,19.6-8.6,24.2-25.9l16.1-60.3
				h34.5l-16.1,60.3c-10.8,40.2-33.4,60.3-67.9,60.3S601.9,221.5,612.7,181.3z"/>
			<path class="st0" d="M800.6,155.5l-23.1,86.2l-43.7,34.5l32.3-120.7h-34.5l9.2-34.5h103.4l-9.2,34.5H800.6z"/>
			<path class="st0" d="M956.4,121l-69.3,86.2h46.2l-9.2,34.5H820.6l70-86.2h-46.9l9.2-34.5H956.4z"/>
		</g>
		<g>
			<g>
				<path class="st1" d="M608.7,181.3l16.1-60.3h34.5l-16.1,60.3c-4.7,17.2-1.2,25.9,10.3,25.9c11.5,0,19.6-8.6,24.2-25.9l16.1-60.3
					h34.5l-16.1,60.3c-10.8,40.2-33.4,60.3-67.9,60.3S597.9,221.5,608.7,181.3z"/>
				<path class="st1" d="M796.6,155.5l-23.1,86.2l-43.7,34.5l32.3-120.7h-34.5l9.2-34.5h103.4l-9.2,34.5H796.6z"/>
				<path class="st1" d="M952.4,121l-69.3,86.2h46.2l-9.2,34.5H816.6l70-86.2h-46.9l9.2-34.5H952.4z"/>
			</g>
		</g>
	</g>
	<polyline class="st2" points="455.7,204.5 459.7,204.5 447.1,251.6 378.9,305.4 380,301.4 443.7,251.6 455.7,204.5 	"/>
	<polyline class="st2" points="578.8,196 582.9,196 568.1,251.6 563.7,251.6 578.8,196 	"/>
	<path class="st3" d="M399.9,211.7c0,0,16.4-14.9,31.4-9.6c15,5.3,24.4,2.4,24.4,2.4l-12,47.1l-68.8,53.8L399.9,211.7z"/>
	<path class="st3" d="M487.7,201c0,0,26.4-16.3,49.9-6.5c23.5,9.8,41.2,1.5,41.2,1.5l-15.1,55.6h-53.9L487.7,201z"/>
	<circle class="st4" cx="610" cy="43.4" r="8.3"/>
	<circle class="st5" cx="467.2" cy="104" r="8.3"/>
	<circle class="st5" cx="597.5" cy="70.6" r="4.2"/>
	<circle class="st6" cx="446.5" cy="83.2" r="5.9"/>
	<circle class="st6" cx="579.5" cy="64.7" r="5.9"/>
	<path class="st4" d="M479.8,87.3l-8.2-3.8c-2.3-1.1-3.2-3.8-2.2-6c1.1-2.3,3.8-3.2,6-2.2l8.2,3.8c2.3,1.1,3.2,3.8,2.2,6
		C484.7,87.4,482,88.4,479.8,87.3z"/>
	<path class="st4" d="M576.4,97l2.9-4.5c0.8-1.2,2.5-1.6,3.7-0.8c1.2,0.8,1.6,2.5,0.8,3.7l-2.9,4.5c-0.8,1.2-2.5,1.6-3.7,0.8
		C576,99.9,575.6,98.2,576.4,97z"/>
	<circle class="st3" cx="440.2" cy="113.2" r="7.4"/>
	<circle class="st3" cx="597.3" cy="88.9" r="3.7"/>
	<path class="st5" d="M568.5,87.9l-6.4-3c-1.8-0.8-2.5-3-1.7-4.7c0.8-1.8,3-2.5,4.7-1.7l6.4,3c1.8,0.8,2.5,3,1.7,4.7
		C572.4,88,570.3,88.7,568.5,87.9z"/>
</g>
</svg>